<svg xmlns="http://www.w3.org/2000/svg" width="265" height="71" viewBox="0 0 265 71"><g data-name="グループ 48"><path data-name="長方形 27" fill="#1a274b" d="M0 0h265v71H0z"/><g data-name="グループ 47" fill="#fff"><g data-name="グループ 1"><path data-name="パス 1" d="M27.552 28.907q-.461.015-.949.072v-.518q-1.152.662-2.964 1.482a14.342 14.342 0 00-1.439-2.59 47.577 47.577 0 01-.777 7.236 24.287 24.287 0 01-1.051 3.683 25.318 25.318 0 01-1.237 2.561 33.6 33.6 0 00-3.381-4.057 13.377 13.377 0 001.309-3.4 35.111 35.111 0 00.748-6.445q.1-2.374.1-7.092 0-3.87-.144-5.28 1.323.144 4.158.144h6.632v-.288a8.711 8.711 0 00-.129-1.482h4.819a7.181 7.181 0 00-.129 1.539v.23h6.7a35.711 35.711 0 003.769-.172v4.1q-1.453-.158-3.438-.173h-2.7l2.575 1.252a22.435 22.435 0 01-2.532 2.92q.417.288 1.007.648a13.406 13.406 0 002.3-2.791l3.237 1.64a19.654 19.654 0 01-2.4 2.69 21.043 21.043 0 002.733.863 24.107 24.107 0 00-2.072 4.086 35.383 35.383 0 01-3.251-1.482v.691q-.662-.072-1.381-.1v1.467h2.964a23.332 23.332 0 002.647-.1v3.812a23.8 23.8 0 00-2.762-.129h-2.848v2.158a.493.493 0 00.129.4 1.831 1.831 0 00.892.129 2.284 2.284 0 00.992-.129q.359-.216.36-2.143a12.682 12.682 0 003.87 1.064 9.706 9.706 0 01-.647 3.41 2.871 2.871 0 01-1.194 1.194 9.231 9.231 0 01-3.712.46 10.773 10.773 0 01-3.711-.417 1.664 1.664 0 01-.95-.921 4.529 4.529 0 01-.23-1.583v-3.625h-1.971a9.655 9.655 0 01-.6 2.259 7.537 7.537 0 01-4.143 3.712 16.9 16.9 0 01-3.266.935 14.566 14.566 0 00-1.05-2.086A19.489 19.489 0 0021.169 37a10.677 10.677 0 004.488-1.18 3.511 3.511 0 001.482-1.9H25.41a22.955 22.955 0 00-2.748.129v-3.841a20.922 20.922 0 002.619.129h2.273zm-5.265-5.51q-.015.878-.015 1.165-.015 1.094-.028 1.525a17.152 17.152 0 002.072-.777 22.535 22.535 0 00-2.03-1.91zm.029-1.654l1.626-1.338q.734.547 1.28 1.007v-2.285a19.392 19.392 0 002.4.115h3.942q1.64 0 2.474-.086a5.635 5.635 0 00.95 1.41 12.722 12.722 0 00.992-1.064 7.9 7.9 0 00.748-1.036H22.31zm5.136 1.812a9.019 9.019 0 001.525-1.4h-1.352q-.906 0-1.511.043.69.655 1.337 1.36zm3.194 2.043h4.316a25.2 25.2 0 01-2.316-2.158 14.528 14.528 0 01-2.001 2.161zm1.093 3.266v1.482h1.726v-1.479z"/><path data-name="パス 2" d="M57.863 25.228h-7.136q-1.755 0-2.877.115v-3.4a28.38 28.38 0 002.877.115h2.935q-.345-.734-.72-1.381h-2.618q-2.388.015-3.654.144V16.9a24.99 24.99 0 003.323.173 14.15 14.15 0 00-1.6-2.388l4.187-1.424a29.851 29.851 0 011.928 3.812h.849v-1.928a13.781 13.781 0 00-.13-2.144h4.4a13.764 13.764 0 00-.1 1.928v2.144h1.237v-2.144a14.632 14.632 0 00-.1-1.928h4.4a12.49 12.49 0 00-.129 2.144v1.928h.892a19.546 19.546 0 001.885-3.827l4.19 1.454a27.65 27.65 0 01-1.453 2.374 27.21 27.21 0 003.353-.173v3.927q-1.167-.129-3.669-.144h-2.431q-.417.835-.734 1.381h2.777q1.783 0 2.892-.115v3.4q-1.122-.115-2.892-.115h-7.481v.906h6.244A26.677 26.677 0 0071.402 26v3.151a25.465 25.465 0 00-2.891-.129h-6.244v.906h7.635a27.863 27.863 0 003.769-.172v3.7a35.658 35.658 0 00-3.726-.173h-4.543q2.963 2.274 8.935 3.136a18.631 18.631 0 00-2.188 4.158 29.127 29.127 0 01-6.172-2.446 16.942 16.942 0 01-3.784-2.848q.043.791.043 1.683v.935a17.2 17.2 0 00.187 2.892h-4.69a20.3 20.3 0 00.173-2.92V37q0-.834.043-1.655a22 22 0 01-9.481 5.237 15.078 15.078 0 00-2.374-3.985 27.519 27.519 0 005.409-1.482 13.747 13.747 0 003.309-1.827h-4.11a35.334 35.334 0 00-3.812.173v-3.7a30.93 30.93 0 003.769.172h7.207v-.906h-5.9a25.306 25.306 0 00-2.877.129V26a25.536 25.536 0 002.877.129h5.9zm.331-3.165h4.071q.374-.734.633-1.381h-5.251q.316.718.547 1.381z"/><path data-name="パス 3" d="M87.628 16.193v-.6a15.263 15.263 0 00-.158-2.633h5.107a17.926 17.926 0 00-.13 2.633v.6h7.064a31.2 31.2 0 004.115-.187v4.5a32.472 32.472 0 00-4.057-.173h-7.122v2.82h3.986a13.567 13.567 0 002.459-.144l2.647 2.662q-.416.5-1.554 2.144a27.809 27.809 0 01-5.179 5.611 28.516 28.516 0 003.855 1.424 35.886 35.886 0 005.669.964 27.007 27.007 0 00-2.072 4.906 44.928 44.928 0 01-5.05-1.237 34.347 34.347 0 01-6.747-3.064 36.172 36.172 0 01-12 4.2 21.8 21.8 0 00-2.143-4.46 42.007 42.007 0 006.359-1.237 31.089 31.089 0 003.783-1.367q-.4-.359-.661-.6a35.358 35.358 0 01-3.813-4.4l3.323-1.352h-2.532a34.4 34.4 0 00-3.812.173v-4.395a31.227 31.227 0 003.985.173h4.676v-2.82h-6.675a32.953 32.953 0 00-4.043.173v-4.5a32.1 32.1 0 004.086.187zm3.007 15.048q.732-.532 1.366-1.079a15.167 15.167 0 001.726-1.683q.259-.287 1.036-1.28h-8.344a19.053 19.053 0 004.216 4.042z"/><path data-name="パス 4" d="M113.998 37.628a3.165 3.165 0 01-.691 2.043 2.831 2.831 0 01-1.64.806 10.727 10.727 0 01-1.971.144q-.863 0-2.274-.086a13.2 13.2 0 00-.949-4.2q1.641.159 2.445.158a.859.859 0 00.59-.144 1.113 1.113 0 00.173-.748v-5.007l-.576.144-.46.115q-.92.231-1.583.432l-.7-4.546a11.175 11.175 0 001.179-.086l1.367-.23q.518-.087.777-.144v-4.158h-.906a18.306 18.306 0 00-2.044.115v-4.33a13.264 13.264 0 002.087.144h.863v-2.043a21.876 21.876 0 00-.158-3.021h4.642a21.688 21.688 0 00-.158 3.021v2.043h.618a10.57 10.57 0 001.251-.072v4.215a11.965 11.965 0 00-1.251-.072h-.618v3.136q.7-.2 1.639-.489l.015 4.028-1.295.432-.359.115v6.862a13.683 13.683 0 003.078-3.554 14.617 14.617 0 001.712-3.884 19.419 19.419 0 00-2.518.13v-3.64a24.235 24.235 0 002.647.129h.562q.057-.388.129-1.064h-.618q-1.424 0-2.46.086v-3.4a13.578 13.578 0 001.625.1 9.286 9.286 0 00-1.31-2.6l2.777-.806q-1.165.073-2.992.13a12.657 12.657 0 00-1.223-3.5 74.853 74.853 0 0012.215-.835 16.167 16.167 0 003.265-.762l2.82 3.481-.33.058-.46.072-.518.086q-.691.1-2.863.36l4.056.935q-1.093 2.2-1.827 3.381a12.173 12.173 0 001.87-.129v3.453q-1.065-.1-2.921-.115h-6.79q-.057.518-.129 1.064h6.776a26.64 26.64 0 003.538-.158v3.712q-.4-.043-.92-.087-1.28-.086-2.618-.086h-7.465q-.115.446-.244.892h5.308a16.491 16.491 0 002.546-.115l2.173 2.331q-.418.5-1.151 1.482a20 20 0 01-2.273 2.46 24.824 24.824 0 005.064.791 23.283 23.283 0 00-1.7 4.273 24.738 24.738 0 01-6.949-2.446 21.289 21.289 0 01-2.431 1.18q-1.251.532-2.143.82-.547.173-1.668.417a14.959 14.959 0 00-1.381-2.589 19.171 19.171 0 01-2.359 2.273 14.8 14.8 0 00-1.913-2.903zm6.531-19.983a17.389 17.389 0 011.323 2.676l-2.733.791h4.5q-.159-.532-.345-1.007a13.824 13.824 0 00-1.036-1.971l2.762-.835q-1.813.173-4.173.331zm.288 16.875a21.318 21.318 0 01-1.54 2.475 18.52 18.52 0 003.151-.964q-.949-.82-1.611-1.51zm2.82-1.841a15.219 15.219 0 002.028 1.511 11.25 11.25 0 001.583-1.511zm2.273-15.465a12.906 12.906 0 011.41 3.05l-2.992.849h3.395a18.653 18.653 0 001.726-4.3q-1.252.157-3.539.401z"/><path data-name="パス 5" d="M143.169 20.509v-2.777a27.854 27.854 0 00-.2-3.654h5.625a22.207 22.207 0 00-.215 3.525v2.373l10.286-1.122a9.119 9.119 0 001.4-.216 4.4 4.4 0 00.7-.273l2.921 2.719a4.613 4.613 0 00-.59.82q-.1.173-.374.805a27.041 27.041 0 01-3.165 5.208 24.037 24.037 0 01-4.245 4.043 15.5 15.5 0 00-4.143-3.323 17.18 17.18 0 003.107-2.273 12.06 12.06 0 002.159-2.7l-8.056.949v7.5a3.673 3.673 0 00.23 1.5 1.1 1.1 0 00.833.547 12.242 12.242 0 002.5.187 31.3 31.3 0 009.48-1.266l.188 5.51-.49.029q-.762.029-1.381.087-4.92.489-7.84.489a20.95 20.95 0 01-5.668-.547 3.939 3.939 0 01-2.216-1.712 5.665 5.665 0 01-.792-2.805q-.041-.589-.042-2.532v-6.431l-1.769.2a36.271 36.271 0 00-3.885.619l-.518-5.05q.691.043 1.036.043.936 0 2.835-.2z"/><path data-name="パス 6" d="M167.212 19.357l3.381-4.143a46.074 46.074 0 018.114 5.769l-3.5 4.575a36.535 36.535 0 00-3.683-3.352 28.382 28.382 0 00-3.193-2.23q-.255-.158-1.119-.619zm1.827 19.8l-1.54-5.654q1.454-.115 2.734-.345a27.26 27.26 0 008.013-2.661 17.353 17.353 0 005.582-4.719 27.085 27.085 0 004.057-7.466 20.731 20.731 0 002.043 2.158q.82.733 2.316 1.812a33.53 33.53 0 01-4.416 7.294 24.31 24.31 0 01-11.049 7.481 54.54 54.54 0 01-5.624 1.554q-1.227.283-2.116.542z"/><path data-name="パス 7" d="M203.208 12.956l5.28 1.05q-.173.288-.691 1.338-.359.777-.561 1.194l7.9-.072a5.053 5.053 0 001.194-.13 3.612 3.612 0 00.629-.255l2.619 2.6a2.565 2.565 0 00-.418.547 5.23 5.23 0 00-.273.7q-1.122 3.367-2.087 5.51a29.906 29.906 0 01-4.69 7.481 31.546 31.546 0 01-10.92 7.769 18.289 18.289 0 00-3.453-4.417 24.314 24.314 0 009.985-6.042 30.362 30.362 0 00-5.5-3.668l3.122-3.712a47.239 47.239 0 015.41 3.367 20.16 20.16 0 002.532-5.381l-8.143.043a29.677 29.677 0 01-3.006 4.23 38.3 38.3 0 01-3.726 3.755 15.483 15.483 0 00-4.245-3.309 27.315 27.315 0 007.359-8.473 18.788 18.788 0 001.683-4.125z"/><path data-name="パス 8" d="M222.143 29.619v-5.7q1.093.145 2.115.187 1.783.087 3.927.072h14.084a57.037 57.037 0 006.042-.259v5.683q-1.512-.158-6.072-.173h-14.025q-4.028-.001-6.071.19z"/></g><g data-name="グループ 2"><path data-name="パス 9" d="M129.26 58.137h-1a8.227 8.227 0 00.065-1.138v-4.727a9.527 9.527 0 00-.065-1.116h1.068a7.492 7.492 0 00-.065 1.121v.968q0 .424-.021.637a2.181 2.181 0 011.858-.859 2.136 2.136 0 011.6.606 2.7 2.7 0 01.689 1.971 2.771 2.771 0 01-.716 2.028 2.191 2.191 0 01-1.634.624 2.4 2.4 0 01-1.265-.319 2.073 2.073 0 01-.532-.484v.07c.006.044.01.128.013.253zm1.679-4.312a1.622 1.622 0 00-.811.214 1.551 1.551 0 00-.645.68 2.022 2.022 0 00-.2.89 2.064 2.064 0 00.274 1.06 1.511 1.511 0 00.872.693 1.664 1.664 0 00.475.07 1.551 1.551 0 00.754-.187 1.4 1.4 0 00.6-.729 2.347 2.347 0 00.157-.894 1.716 1.716 0 00-.7-1.6 1.5 1.5 0 00-.775-.193z"/><path data-name="パス 10" d="M136.045 57.867l-1.653-3.654q-.384-.859-.5-1.081h1.16c.015.081.031.156.048.222a5.686 5.686 0 00.275.785l1.173 2.725 1.06-2.721a5.89 5.89 0 00.322-1.012h1.126q-.131.283-.271.619l-.2.462-2.015 4.827a1.4 1.4 0 01-.606.728 1.853 1.853 0 01-.885.2 4.435 4.435 0 01-.855-.1l.21-.894a1.521 1.521 0 00.606.157.687.687 0 00.668-.467z"/><path data-name="パス 11" d="M150.333 58.093a2.047 2.047 0 01-2-.991l-2.025-2.506c-.363-.452-.321-1.311.525-1.311h.553c.962 0 1.442.029 1.676-.146.218-.146.175-.918.175-1.136 0-.553-.175-1.253-1.88-1.253h-1.484v7.343c-.394 0-1.384.073-1.72-.19-.218-.175-.262-.524-.262-1.224V50.56c0-.714-.1-1.311.845-1.4.219-.014.51-.014.9-.014h1.645c3.511 0 3.949 1.661 3.949 2.855a2.446 2.446 0 01-2.608 2.783l3.234 3.307z"/><path data-name="パス 12" d="M154.707 58.093a2.966 2.966 0 01-1.472-.19c-.335-.262-.277-.874-.277-1.238v-6.089c0-1.384.146-1.427 1.749-1.427h3.438c.728 0 1.092.029 1.267.2.291.276.219 1.078.219 1.413h-4.72v1.967h2.826c.714 0 1.063.029 1.238.2.291.277.218 1.063.218 1.4h-4.282v2.127h3.132c.772 0 1.151.044 1.355.2.306.291.234 1.078.234 1.428z"/><path data-name="パス 13" d="M164.317 58.109h-3.234c0-.918.029-1.268.2-1.443.175-.2.524-.233 1.238-.233h1.748a9.13 9.13 0 001.792-.088c.189-.1.16-.67.16-.816 0-.757-1.092-1.02-1.689-1.136-1.544-.321-3.7-.408-3.73-2.52-.044-1.7 1.165-2.753 3.787-2.753h3.257c0 1.544-.088 1.646-1.413 1.646h-1.897a6.789 6.789 0 00-1.632.1c-.2.117-.146.787-.146.932 0 .277.2.525.758.7 1.719.539 4.647.364 4.647 2.884.001 1.343-.932 2.727-3.846 2.727z"/><path data-name="パス 14" d="M170.379 49.149h5.726c0 .524 0 .743-.015.918a.751.751 0 01-.189.5c-.175.175-.525.2-1.225.2h-1.121v7.326c-1.821 0-1.938-.058-1.938-1.4v-5.93h-2.589c0-1.498.084-1.614 1.351-1.614z"/><path data-name="パス 15" d="M183.851 58.079c-.859-.058-.961-.35-1.224-1.02l-.248-.627H178.3l-.219.627c-.393 1.034-.407 1.034-2.491 1.034l3.1-7.867c.394-1.049.481-1.107 1.646-1.107h1.165l3.6 8.974c-.712.001-1.032.001-1.25-.014zm-3.511-7.255l-1.486 4.124h2.986z"/><path data-name="パス 16" d="M192.609 58.093a2.046 2.046 0 01-2-.991l-2.026-2.506c-.363-.452-.32-1.311.525-1.311h.553c.962 0 1.442.029 1.676-.146.218-.146.174-.918.174-1.136 0-.553-.174-1.253-1.879-1.253h-1.486v7.343c-.394 0-1.384.073-1.719-.19-.218-.175-.262-.524-.262-1.224V50.56c0-.714-.1-1.311.845-1.4.219-.014.51-.014.9-.014h1.645c3.511 0 3.949 1.661 3.949 2.855a2.446 2.446 0 01-2.608 2.783l3.234 3.307z"/><path data-name="パス 17" d="M195.907 49.149h5.726c0 .524 0 .743-.015.918a.75.75 0 01-.189.5c-.175.175-.525.2-1.225.2h-1.121v7.326c-1.821 0-1.938-.058-1.938-1.4v-5.93h-2.596c0-1.498.09-1.614 1.358-1.614z"/><path data-name="パス 18" d="M210.345 58.109h-3.231c0-.918.029-1.268.2-1.443.175-.2.524-.233 1.238-.233h1.748a9.127 9.127 0 001.792-.088c.189-.1.16-.67.16-.816 0-.757-1.092-1.02-1.689-1.136-1.544-.321-3.7-.408-3.729-2.52-.044-1.7 1.165-2.753 3.788-2.753h3.248c0 1.544-.088 1.646-1.413 1.646h-1.893a6.79 6.79 0 00-1.632.1c-.2.117-.146.787-.146.932 0 .277.2.525.758.7 1.719.539 4.647.364 4.647 2.884 0 1.343-.932 2.727-3.846 2.727z"/><path data-name="パス 19" d="M216.408 49.149h5.726c0 .524 0 .743-.015.918a.749.749 0 01-.189.5c-.175.175-.525.2-1.224.2h-1.122v7.326c-1.821 0-1.937-.058-1.937-1.4v-5.93h-2.593c0-1.498.087-1.614 1.354-1.614z"/><path data-name="パス 20" d="M228.469 55.355v2.739a4.062 4.062 0 01-1.778-.19c-.232-.175-.276-.51-.276-1.209v-1.34l-3.54-6.235a5.349 5.349 0 011.951.16c.408.175.6.655.787 1.005l1.835 3.526 1.937-3.526c.656-1.18.612-1.165 2.754-1.165z"/><path data-name="パス 21" d="M234.942 58.094c-1.414 0-1.661 0-1.661-1.4v-7.546c.393 0 1.37-.073 1.705.189.218.175.262.524.262 1.224v5.929h2.009c.7 0 1.035.044 1.209.219.277.262.219 1.049.219 1.384z"/><path data-name="パス 22" d="M241.734 58.093a2.968 2.968 0 01-1.472-.19c-.335-.262-.277-.874-.277-1.238v-6.089c0-1.384.146-1.427 1.749-1.427h3.438c.728 0 1.092.029 1.267.2.291.276.219 1.078.219 1.413h-4.718v1.967h2.826c.714 0 1.063.029 1.238.2.292.277.218 1.063.218 1.4h-4.282v2.127h3.132c.772 0 1.15.044 1.354.2.306.291.234 1.078.234 1.428z"/></g></g></g></svg>