<svg id="phone-call" xmlns="http://www.w3.org/2000/svg" width="26.261" height="26.317" viewBox="0 0 26.261 26.317">
  <g id="グループ_4" data-name="グループ 4" transform="translate(0 0)">
    <path id="パス_23" data-name="パス 23" d="M26.112,19.314l-3.673-3.673a2.443,2.443,0,0,0-4.066.918,2.5,2.5,0,0,1-2.886,1.574c-2.623-.656-6.165-4.066-6.82-6.82a2.377,2.377,0,0,1,1.574-2.886,2.443,2.443,0,0,0,.918-4.066L7.487.689a2.62,2.62,0,0,0-3.541,0L1.453,3.181C-1.039,5.8,1.716,12.756,7.88,18.92S21,27.971,23.62,25.347l2.492-2.492A2.62,2.62,0,0,0,26.112,19.314Z" transform="translate(-0.539 0)" fill="#151f3b"/>
  </g>
</svg>
