<svg xmlns="http://www.w3.org/2000/svg" width="202" height="41.02" viewBox="0 0 202 41.02">
  <g id="グループ_1" data-name="グループ 1" transform="translate(-180.245 -226.255)">
    <g id="グループ_1-2" data-name="グループ 1" transform="translate(180.245 226.255)">
      <path id="パス_1" data-name="パス 1" d="M190.492,240.7q-.4.013-.825.063v-.45q-1,.575-2.574,1.287a12.46,12.46,0,0,0-1.25-2.249,41.322,41.322,0,0,1-.674,6.285,21.1,21.1,0,0,1-.913,3.2,21.982,21.982,0,0,1-1.074,2.224,29.178,29.178,0,0,0-2.937-3.524,11.62,11.62,0,0,0,1.137-2.949,30.5,30.5,0,0,0,.65-5.6q.087-2.062.087-6.16,0-3.361-.125-4.586,1.149.125,3.611.125h5.761v-.25a7.568,7.568,0,0,0-.112-1.287h4.186a6.237,6.237,0,0,0-.112,1.337v.2h5.823a31.005,31.005,0,0,0,3.274-.15v3.562q-1.262-.137-2.986-.15h-2.349l2.237,1.087a19.491,19.491,0,0,1-2.2,2.537q.362.251.875.562a11.646,11.646,0,0,0,2-2.424l2.812,1.425a17.068,17.068,0,0,1-2.087,2.337,18.279,18.279,0,0,0,2.374.75,20.94,20.94,0,0,0-1.8,3.549,30.716,30.716,0,0,1-2.824-1.287v.6q-.575-.063-1.2-.088v1.275h2.574a20.27,20.27,0,0,0,2.3-.088v3.311a20.667,20.667,0,0,0-2.4-.112h-2.474v1.875a.428.428,0,0,0,.112.35,1.591,1.591,0,0,0,.775.112,1.984,1.984,0,0,0,.862-.112q.312-.188.313-1.862a11.016,11.016,0,0,0,3.361.925,8.432,8.432,0,0,1-.562,2.962,2.494,2.494,0,0,1-1.037,1.037,8.017,8.017,0,0,1-3.224.4,9.357,9.357,0,0,1-3.224-.362,1.445,1.445,0,0,1-.825-.8,3.934,3.934,0,0,1-.2-1.375v-3.149h-1.712a8.386,8.386,0,0,1-.525,1.962,6.547,6.547,0,0,1-3.6,3.224,14.68,14.68,0,0,1-2.837.812,12.648,12.648,0,0,0-.912-1.812,16.925,16.925,0,0,0-1.1-1.512,9.275,9.275,0,0,0,3.9-1.025,3.05,3.05,0,0,0,1.287-1.649h-1.5a19.933,19.933,0,0,0-2.387.112v-3.336a18.173,18.173,0,0,0,2.274.112h1.974Zm-4.573-4.786q-.013.763-.013,1.012-.013.95-.025,1.325a14.9,14.9,0,0,0,1.8-.675A19.578,19.578,0,0,0,185.918,235.919Zm.025-1.437,1.412-1.162q.637.475,1.112.875v-1.987a16.842,16.842,0,0,0,2.087.1h3.424q1.424,0,2.149-.075a4.9,4.9,0,0,0,.825,1.225,11.053,11.053,0,0,0,.862-.925,6.859,6.859,0,0,0,.65-.9H185.943Zm4.461,1.574a7.835,7.835,0,0,0,1.325-1.212h-1.175q-.787,0-1.312.037Q189.842,235.444,190.4,236.056Zm2.774,1.775h3.749a21.894,21.894,0,0,1-2.012-1.875A12.616,12.616,0,0,1,193.178,237.831Zm.95,2.837v1.287h1.5v-1.287Z" transform="translate(-180.245 -226.659)" fill="#151f3b"/>
      <path id="パス_2" data-name="パス 2" d="M277.715,237.621h-6.2q-1.525,0-2.5.1v-2.949a24.649,24.649,0,0,0,2.5.1h2.549q-.3-.638-.625-1.2h-2.274q-2.075.013-3.174.125v-3.411a21.712,21.712,0,0,0,2.886.15,12.294,12.294,0,0,0-1.387-2.074l3.636-1.237a25.926,25.926,0,0,1,1.675,3.311h.737v-1.674a11.961,11.961,0,0,0-.113-1.862h3.824a11.935,11.935,0,0,0-.088,1.675v1.862h1.075v-1.862a12.708,12.708,0,0,0-.088-1.675h3.824a10.851,10.851,0,0,0-.112,1.862v1.674h.775a16.979,16.979,0,0,0,1.637-3.324l3.636,1.262a24.013,24.013,0,0,1-1.262,2.062,23.648,23.648,0,0,0,2.912-.15V233.8q-1.014-.112-3.187-.125h-2.112q-.362.725-.637,1.2h2.412q1.549,0,2.512-.1v2.949q-.975-.1-2.512-.1h-6.5v.787h5.423a23.171,23.171,0,0,0,2.512-.112v2.737a22.118,22.118,0,0,0-2.512-.112h-5.423v.787h6.635a24.2,24.2,0,0,0,3.274-.15v3.211a30.979,30.979,0,0,0-3.237-.15h-3.949q2.574,1.975,7.761,2.724a16.181,16.181,0,0,0-1.9,3.611,25.3,25.3,0,0,1-5.361-2.124,14.715,14.715,0,0,1-3.287-2.474q.038.687.038,1.462v.812a14.944,14.944,0,0,0,.162,2.512H277.6a17.636,17.636,0,0,0,.15-2.537v-.762q0-.724.037-1.437a19.108,19.108,0,0,1-8.235,4.549,13.1,13.1,0,0,0-2.062-3.461,23.9,23.9,0,0,0,4.7-1.287,11.941,11.941,0,0,0,2.874-1.587h-3.574a30.7,30.7,0,0,0-3.311.15v-3.211a26.858,26.858,0,0,0,3.274.15h6.26v-.787h-5.123a21.981,21.981,0,0,0-2.5.112V238.3a22.18,22.18,0,0,0,2.5.112h5.123Zm.288-2.749h3.536q.325-.638.55-1.2h-4.561Q277.8,234.3,278,234.872Z" transform="translate(-241.139 -226.774)" fill="#151f3b"/>
      <path id="パス_3" data-name="パス 3" d="M364.231,229.687v-.525a13.259,13.259,0,0,0-.137-2.287h4.436a15.566,15.566,0,0,0-.113,2.287v.525h6.136a27.092,27.092,0,0,0,3.574-.163v3.911a28.208,28.208,0,0,0-3.524-.15h-6.186v2.449h3.462a11.783,11.783,0,0,0,2.136-.125l2.3,2.312q-.362.438-1.35,1.862a24.155,24.155,0,0,1-4.5,4.873,24.766,24.766,0,0,0,3.349,1.237,31.164,31.164,0,0,0,4.924.837,23.467,23.467,0,0,0-1.8,4.261,39.029,39.029,0,0,1-4.386-1.075,29.834,29.834,0,0,1-5.86-2.662,31.42,31.42,0,0,1-10.423,3.649,18.939,18.939,0,0,0-1.862-3.874,36.5,36.5,0,0,0,5.523-1.075,27,27,0,0,0,3.286-1.187q-.349-.312-.574-.525a30.7,30.7,0,0,1-3.312-3.824l2.886-1.175h-2.2a29.878,29.878,0,0,0-3.311.15v-3.811a27.124,27.124,0,0,0,3.461.15h4.061v-2.449h-5.8a28.626,28.626,0,0,0-3.512.15v-3.911a27.881,27.881,0,0,0,3.549.163Zm2.612,13.071q.636-.462,1.187-.937a13.167,13.167,0,0,0,1.5-1.462q.225-.25.9-1.112h-7.248A16.548,16.548,0,0,0,366.843,242.758Z" transform="translate(-301.802 -226.688)" fill="#151f3b"/>
      <path id="パス_4" data-name="パス 4" d="M447.425,247.873a2.749,2.749,0,0,1-.6,1.775,2.459,2.459,0,0,1-1.424.7,9.317,9.317,0,0,1-1.712.125q-.749,0-1.975-.075a11.462,11.462,0,0,0-.824-3.649q1.425.138,2.124.137a.746.746,0,0,0,.513-.125.967.967,0,0,0,.15-.65v-4.349l-.5.125-.4.1q-.8.2-1.375.375l-.612-3.949a9.71,9.71,0,0,0,1.024-.075l1.188-.2q.45-.075.675-.125V234.4h-.787a15.9,15.9,0,0,0-1.775.1v-3.761a11.519,11.519,0,0,0,1.812.125h.75v-1.774a18.993,18.993,0,0,0-.137-2.624h4.036a18.853,18.853,0,0,0-.137,2.624v1.774h.537a9.18,9.18,0,0,0,1.087-.062v3.661a10.393,10.393,0,0,0-1.087-.063h-.537v2.724q.612-.175,1.424-.425l.013,3.5-1.125.375-.312.1v5.961a11.89,11.89,0,0,0,2.673-3.087,12.7,12.7,0,0,0,1.487-3.374,16.868,16.868,0,0,0-2.187.113v-3.162a21.047,21.047,0,0,0,2.3.112h.488q.05-.337.112-.925h-.537q-1.237,0-2.136.075V233.44a11.788,11.788,0,0,0,1.411.087,8.067,8.067,0,0,0-1.138-2.262l2.412-.7q-1.012.063-2.6.113a11,11,0,0,0-1.063-3.037,65.013,65.013,0,0,0,10.61-.725,14.046,14.046,0,0,0,2.836-.662l2.449,3.024-.287.05-.4.063-.45.075q-.6.087-2.487.312l3.523.812q-.949,1.912-1.587,2.937a10.578,10.578,0,0,0,1.624-.112v3q-.925-.087-2.537-.1h-5.9q-.049.45-.112.925h5.886a23.139,23.139,0,0,0,3.073-.137v3.224q-.349-.038-.8-.075-1.111-.075-2.274-.075h-6.486q-.1.388-.212.775h4.611a14.327,14.327,0,0,0,2.211-.1l1.887,2.024q-.363.438-1,1.287a17.375,17.375,0,0,1-1.975,2.137,21.56,21.56,0,0,0,4.4.687A20.23,20.23,0,0,0,463.8,250.7a21.49,21.49,0,0,1-6.036-2.124,18.489,18.489,0,0,1-2.112,1.025q-1.087.462-1.862.712-.475.15-1.449.362a12.984,12.984,0,0,0-1.2-2.249,16.652,16.652,0,0,1-2.049,1.974A12.862,12.862,0,0,0,447.425,247.873Zm5.673-17.357a15.108,15.108,0,0,1,1.15,2.324l-2.374.687h3.912q-.138-.462-.3-.875a12,12,0,0,0-.9-1.712l2.4-.725q-1.574.15-3.625.288Zm.25,14.658a18.511,18.511,0,0,1-1.337,2.149,16.086,16.086,0,0,0,2.737-.837Q453.923,245.774,453.348,245.174Zm2.449-1.6a13.211,13.211,0,0,0,1.762,1.312,9.767,9.767,0,0,0,1.375-1.312Zm1.974-13.433A11.208,11.208,0,0,1,459,232.79l-2.6.737h2.949a16.209,16.209,0,0,0,1.5-3.736Q459.759,229.929,457.772,230.141Z" transform="translate(-362.091 -226.255)" fill="#151f3b"/>
      <path id="パス_5" data-name="パス 5" d="M534.294,235.688v-2.412a24.208,24.208,0,0,0-.174-3.174h4.886a19.275,19.275,0,0,0-.187,3.062v2.062l8.934-.975a7.928,7.928,0,0,0,1.212-.187,3.832,3.832,0,0,0,.612-.237l2.537,2.361a4,4,0,0,0-.513.713q-.087.15-.325.7a23.485,23.485,0,0,1-2.749,4.524,20.884,20.884,0,0,1-3.687,3.511,13.465,13.465,0,0,0-3.6-2.886,14.917,14.917,0,0,0,2.7-1.975,10.472,10.472,0,0,0,1.875-2.349l-7,.825v6.51a3.19,3.19,0,0,0,.2,1.3.959.959,0,0,0,.724.475,10.634,10.634,0,0,0,2.175.162,27.185,27.185,0,0,0,8.235-1.1l.163,4.786-.426.025q-.661.025-1.2.075-4.273.425-6.81.425a18.2,18.2,0,0,1-4.923-.475,3.421,3.421,0,0,1-1.924-1.487,4.919,4.919,0,0,1-.688-2.437q-.036-.512-.037-2.2v-5.586l-1.537.175a31.5,31.5,0,0,0-3.375.537l-.45-4.386q.6.038.9.038.813,0,2.462-.175Z" transform="translate(-423.62 -228.94)" fill="#151f3b"/>
      <path id="パス_6" data-name="パス 6" d="M615.784,236.969l2.937-3.6a40.023,40.023,0,0,1,7.048,5.011l-3.037,3.974a31.753,31.753,0,0,0-3.2-2.912,24.658,24.658,0,0,0-2.773-1.937Q616.535,237.369,615.784,236.969Zm1.587,17.195-1.337-4.911q1.263-.1,2.375-.3a23.679,23.679,0,0,0,6.96-2.312,15.072,15.072,0,0,0,4.849-4.1,23.523,23.523,0,0,0,3.524-6.485,17.99,17.99,0,0,0,1.775,1.875q.712.637,2.011,1.574a29.129,29.129,0,0,1-3.836,6.336,21.115,21.115,0,0,1-9.6,6.5,47.375,47.375,0,0,1-4.885,1.35Q618.146,253.939,617.371,254.164Z" transform="translate(-484.228 -231.221)" fill="#151f3b"/>
      <path id="パス_7" data-name="パス 7" d="M701.162,226.875l4.586.912q-.15.251-.6,1.162-.312.675-.487,1.037l6.861-.062a4.393,4.393,0,0,0,1.037-.113,3.145,3.145,0,0,0,.55-.225l2.275,2.262a2.229,2.229,0,0,0-.363.475,4.552,4.552,0,0,0-.237.612q-.975,2.924-1.812,4.786a25.969,25.969,0,0,1-4.074,6.5,27.4,27.4,0,0,1-9.485,6.748,15.883,15.883,0,0,0-3-3.836,21.12,21.12,0,0,0,8.673-5.248,26.374,26.374,0,0,0-4.774-3.186l2.712-3.224a41.025,41.025,0,0,1,4.7,2.924,17.513,17.513,0,0,0,2.2-4.674l-7.073.037a25.774,25.774,0,0,1-2.611,3.674A33.273,33.273,0,0,1,697,240.7a13.448,13.448,0,0,0-3.687-2.874,23.727,23.727,0,0,0,6.386-7.36A16.322,16.322,0,0,0,701.162,226.875Z" transform="translate(-538.34 -226.688)" fill="#151f3b"/>
      <path id="パス_8" data-name="パス 8" d="M773.746,263.348V258.4q.949.126,1.837.163,1.549.075,3.411.063h12.234a49.549,49.549,0,0,0,5.249-.225v4.936q-1.314-.137-5.274-.15H779.019Q775.521,263.185,773.746,263.348Z" transform="translate(-594.477 -248.69)" fill="#151f3b"/>
    </g>
    <g id="グループ_2" data-name="グループ 2" transform="translate(277.969 257.855)">
      <path id="パス_9" data-name="パス 9" d="M504.643,342.791h-.867a7.138,7.138,0,0,0,.057-.988V337.7a8.273,8.273,0,0,0-.057-.97h.928a6.512,6.512,0,0,0-.056.974v.841q0,.368-.019.553a1.894,1.894,0,0,1,1.614-.746,1.855,1.855,0,0,1,1.39.526,2.342,2.342,0,0,1,.6,1.712,2.406,2.406,0,0,1-.622,1.761,1.9,1.9,0,0,1-1.42.542,2.088,2.088,0,0,1-1.1-.277,1.8,1.8,0,0,1-.462-.42c0,.03,0,.05,0,.06.005.038.009.111.011.22Zm1.459-3.746a1.409,1.409,0,0,0-.7.186,1.348,1.348,0,0,0-.561.591,1.756,1.756,0,0,0-.17.773,1.793,1.793,0,0,0,.238.92,1.312,1.312,0,0,0,.758.6,1.446,1.446,0,0,0,.413.06,1.348,1.348,0,0,0,.655-.163,1.22,1.22,0,0,0,.519-.633,2.038,2.038,0,0,0,.137-.776,1.491,1.491,0,0,0-.606-1.394A1.3,1.3,0,0,0,506.1,339.045Z" transform="translate(-503.776 -334.958)" fill="#151f3b"/>
      <path id="パス_10" data-name="パス 10" d="M521.833,346.521l-1.435-3.174q-.334-.746-.436-.939h1.007c.013.071.027.135.042.193a4.937,4.937,0,0,0,.239.682l1.019,2.367.92-2.364a5.118,5.118,0,0,0,.28-.879h.978q-.114.246-.235.538l-.17.4-1.75,4.193a1.219,1.219,0,0,1-.526.633,1.61,1.61,0,0,1-.769.17,3.849,3.849,0,0,1-.742-.091l.182-.776a1.321,1.321,0,0,0,.526.136.6.6,0,0,0,.58-.405Z" transform="translate(-515.073 -338.924)" fill="#151f3b"/>
      <path id="パス_11" data-name="パス 11" d="M554.313,338.725a1.778,1.778,0,0,1-1.733-.861l-1.759-2.177c-.316-.392-.279-1.139.456-1.139h.481c.835,0,1.253.025,1.456-.127.19-.127.152-.8.152-.987,0-.481-.152-1.088-1.633-1.088h-1.29v6.378c-.342,0-1.2.063-1.494-.165-.189-.152-.228-.456-.228-1.063v-5.315c0-.62-.089-1.139.734-1.215.19-.012.443-.012.785-.012h1.429c3.05,0,3.43,1.442,3.43,2.48a2.125,2.125,0,0,1-2.265,2.417l2.809,2.873Z" transform="translate(-535.143 -330.931)" fill="#151f3b"/>
      <path id="パス_12" data-name="パス 12" d="M576.306,338.725a2.576,2.576,0,0,1-1.279-.165c-.291-.228-.24-.759-.24-1.076V332.2c0-1.2.127-1.24,1.519-1.24h2.986c.632,0,.948.025,1.1.177.253.24.19.936.19,1.227h-4.1v1.708h2.455c.62,0,.923.025,1.076.177.253.24.189.924.189,1.215h-3.72v1.847H579.2c.671,0,1,.038,1.177.177.266.253.2.936.2,1.24Z" transform="translate(-553.336 -330.931)" fill="#151f3b"/>
      <path id="パス_13" data-name="パス 13" d="M600.41,338.68H597.6c0-.8.025-1.1.177-1.253.152-.177.455-.2,1.076-.2h1.519a7.93,7.93,0,0,0,1.557-.076c.164-.089.139-.582.139-.709,0-.658-.949-.886-1.467-.987-1.341-.278-3.214-.355-3.24-2.189-.038-1.48,1.012-2.391,3.29-2.391h2.822c0,1.341-.076,1.43-1.227,1.43H600.6a5.9,5.9,0,0,0-1.417.089c-.177.1-.127.684-.127.81,0,.241.178.456.659.608,1.493.468,4.036.317,4.036,2.505C603.751,337.477,602.941,338.68,600.41,338.68Z" transform="translate(-569.092 -330.872)" fill="#151f3b"/>
      <path id="パス_14" data-name="パス 14" d="M622.173,330.956h4.973c0,.455,0,.645-.013.8a.652.652,0,0,1-.164.43c-.152.152-.456.177-1.064.177h-.974v6.365c-1.582,0-1.683-.051-1.683-1.215v-5.15H621C621,331.057,621.073,330.956,622.173,330.956Z" transform="translate(-585.59 -330.931)" fill="#151f3b"/>
      <path id="パス_15" data-name="パス 15" d="M647.051,338.654c-.746-.051-.835-.3-1.063-.886l-.215-.544H642.23l-.19.544c-.341.9-.354.9-2.164.9l2.7-6.833c.342-.911.418-.962,1.43-.962h1.012l3.126,7.795C647.519,338.667,647.241,338.667,647.051,338.654Zm-3.05-6.3-1.291,3.581H645.3Z" transform="translate(-598.766 -330.872)" fill="#151f3b"/>
      <path id="パス_16" data-name="パス 16" d="M675.886,338.725a1.778,1.778,0,0,1-1.733-.861l-1.759-2.177c-.316-.392-.279-1.139.456-1.139h.481c.835,0,1.253.025,1.456-.127.189-.127.151-.8.151-.987,0-.481-.151-1.088-1.632-1.088h-1.29v6.378c-.342,0-1.2.063-1.494-.165-.19-.152-.228-.456-.228-1.063v-5.315c0-.62-.089-1.139.734-1.215.19-.012.443-.012.785-.012h1.429c3.05,0,3.43,1.442,3.43,2.48a2.125,2.125,0,0,1-2.266,2.417l2.809,2.873Z" transform="translate(-619.994 -330.931)" fill="#151f3b"/>
      <path id="パス_17" data-name="パス 17" d="M695.579,330.956h4.973c0,.455,0,.645-.013.8a.652.652,0,0,1-.164.43c-.152.152-.456.177-1.064.177h-.974v6.365c-1.582,0-1.683-.051-1.683-1.215v-5.15H694.4C694.4,331.057,694.479,330.956,695.579,330.956Z" transform="translate(-636.823 -330.931)" fill="#151f3b"/>
      <path id="パス_18" data-name="パス 18" d="M732.77,338.68h-2.809c0-.8.025-1.1.177-1.253.152-.177.455-.2,1.076-.2h1.519a7.93,7.93,0,0,0,1.556-.076c.164-.089.139-.582.139-.709,0-.658-.949-.886-1.467-.987-1.341-.278-3.214-.355-3.239-2.189-.038-1.48,1.012-2.391,3.29-2.391h2.821c0,1.341-.076,1.43-1.227,1.43H732.96a5.9,5.9,0,0,0-1.418.089c-.177.1-.127.684-.127.81,0,.241.178.456.658.608,1.493.468,4.037.317,4.037,2.505C736.111,337.477,735.3,338.68,732.77,338.68Z" transform="translate(-661.473 -330.872)" fill="#151f3b"/>
      <path id="パス_19" data-name="パス 19" d="M754.534,330.956h4.973c0,.455,0,.645-.013.8a.65.65,0,0,1-.164.43c-.152.152-.456.177-1.064.177h-.974v6.365c-1.581,0-1.683-.051-1.683-1.215v-5.15h-2.252C753.358,331.057,753.433,330.956,754.534,330.956Z" transform="translate(-677.971 -330.931)" fill="#151f3b"/>
      <path id="パス_20" data-name="パス 20" d="M780.709,336.288v2.379a3.527,3.527,0,0,1-1.544-.165c-.2-.152-.24-.443-.24-1.05v-1.164l-3.075-5.416a4.646,4.646,0,0,1,1.7.139c.355.152.519.569.684.873l1.594,3.063,1.683-3.063c.57-1.025.532-1.012,2.392-1.012Z" transform="translate(-693.669 -330.872)" fill="#151f3b"/>
      <path id="パス_21" data-name="パス 21" d="M807.218,338.707c-1.228,0-1.443,0-1.443-1.215v-6.555c.342,0,1.19-.063,1.481.164.19.152.228.456.228,1.063v5.15h1.746c.608,0,.9.038,1.05.19.241.228.19.911.19,1.2Z" transform="translate(-714.555 -330.912)" fill="#151f3b"/>
      <path id="パス_22" data-name="パス 22" d="M826.563,338.725a2.576,2.576,0,0,1-1.279-.165c-.291-.228-.24-.759-.24-1.076V332.2c0-1.2.127-1.24,1.519-1.24h2.986c.632,0,.948.025,1.1.177.253.24.19.936.19,1.227h-4.1v1.708H829.2c.62,0,.923.025,1.076.177.253.24.189.924.189,1.215h-3.72v1.847h2.721c.67,0,1,.038,1.176.177.266.253.2.936.2,1.24Z" transform="translate(-728.002 -330.931)" fill="#151f3b"/>
    </g>
  </g>
</svg>
